<?xml version="1.0" encoding="utf-8"?>
<!-- Generator: Adobe Illustrator 19.1.0, SVG Export Plug-In . SVG Version: 6.00 Build 0)  -->
<svg version="1.1" id="Layer_1" xmlns="http://www.w3.org/2000/svg" xmlns:xlink="http://www.w3.org/1999/xlink" x="0px" y="0px"
	 viewBox="0 0 134 51" style="enable-background:new 0 0 134 51;" xml:space="preserve">
<style type="text/css">
	.st0{fill:#27428C;}
	.st1{fill:#CF2630;}
</style>
<g>
	<g>
		<g>
			<path class="st0" d="M6.2,28.5c0.6-1.9,3.2-3.2,5.8-3.2c2.6,0,4.3,1.3,3.7,3.2c-0.6,1.9-3.2,3.2-5.8,3.2
				C7.2,31.7,5.6,30.3,6.2,28.5z M1.8,28.5c-0.5,1.6,0,2.9,1.4,4c1.4,1,3.5,1.6,5.9,1.6c2.9,0,5.8-0.8,8-2.1c1.6-1,2.6-2.1,3-3.4
				c0.5-1.6,0.1-3-1.3-4c-1.4-1-3.5-1.6-6-1.6c-2.4,0-4.9,0.6-7,1.6C3.7,25.5,2.3,26.9,1.8,28.5z"/>
			<path class="st0" d="M9.1,34.2c-2.5,0-4.6-0.6-6-1.6c-1.5-1.1-2-2.5-1.4-4.1c0.5-1.6,2-3,4.1-4.1c2.1-1,4.6-1.6,7-1.6
				c2.5,0,4.6,0.6,6.1,1.6c1.4,1.1,1.9,2.5,1.4,4.1c-0.4,1.3-1.5,2.5-3.1,3.5C14.9,33.4,12,34.2,9.1,34.2z M12.8,23
				c-2.4,0-4.9,0.6-6.9,1.6c-2.1,1.1-3.5,2.4-4,3.9l0,0c-0.5,1.5,0,2.8,1.4,3.9c1.4,1,3.4,1.6,5.9,1.6c2.9,0,5.8-0.8,8-2.1
				c1.5-1,2.6-2.1,3-3.4c0.5-1.5,0.1-2.9-1.3-3.9C17.4,23.6,15.3,23,12.8,23z M9.9,31.8c-1.6,0-2.9-0.5-3.5-1.4
				c-0.4-0.6-0.5-1.3-0.3-2c0.6-1.9,3.2-3.3,6-3.3c1.6,0,2.9,0.5,3.5,1.4c0.4,0.6,0.5,1.3,0.3,2C15.2,30.4,12.6,31.8,9.9,31.8z
				 M12,25.3c-2.7,0-5.1,1.4-5.7,3.2l0,0c-0.2,0.7-0.1,1.3,0.2,1.8c0.6,0.8,1.8,1.3,3.4,1.3c2.7,0,5.1-1.3,5.7-3.1
				c0.2-0.7,0.1-1.3-0.2-1.8C14.8,25.8,13.6,25.3,12,25.3z"/>
		</g>
		<g>
			<path class="st0" d="M25.9,29c-0.6,1.9,0.2,2.8,2.6,2.8c2.2,0,3.8-0.8,4.4-2.5l2-6h3.8l-2,6c-1,3.1-4.6,4.8-9.2,4.8
				c-4.7,0-7-1.7-6-4.8l2-6h4.3L25.9,29z"/>
			<path class="st0" d="M27.6,34.2c-2.9,0-4.9-0.7-5.8-1.9c-0.6-0.8-0.7-1.8-0.3-3.1l2-6.1H28l-2,5.9c-0.3,0.8-0.2,1.4,0.1,1.8
				c0.4,0.5,1.2,0.8,2.4,0.8c2.2,0,3.7-0.8,4.2-2.4l2-6.1h4.1l-2.1,6.2C35.8,32.3,32.4,34.2,27.6,34.2z M23.7,23.3l-2,6
				c-0.4,1.1-0.3,2.1,0.2,2.9c0.8,1.2,2.8,1.8,5.6,1.8c4.7,0,8.1-1.8,9.1-4.7l2-5.9H35l-2,5.9c-0.6,1.7-2.1,2.6-4.5,2.6
				c-1.3,0-2.2-0.3-2.6-0.9c-0.4-0.5-0.4-1.2-0.1-2l1.9-5.6H23.7z"/>
		</g>
		<g>
			<path class="st0" d="M45.8,25.1c2.4,0,3.4,0.4,3.1,1.4c-0.3,0.9-1.6,1.5-3.8,1.5h-0.9l1-2.9H45.8z M38.1,33.7h4.2l1.4-4.1h0.6
				l3.4,4.1h4.9l-4-4.5c2.4-0.6,3.9-1.6,4.3-2.9c0.3-0.9-0.2-1.8-1.3-2.3c-1.3-0.7-3.1-0.7-5.4-0.7h-4.6L38.1,33.7z"/>
			<path class="st0" d="M52.9,33.8h-5.2l-3.4-4.1h-0.5l-1.4,4.1h-4.4l3.6-10.7h4.7c2.5,0,4.1,0.1,5.4,0.8c1.2,0.6,1.7,1.5,1.4,2.5
				c-0.4,1.3-1.9,2.4-4.2,2.9L52.9,33.8z M47.8,33.6h4.6l-4-4.5l0.2,0c2.3-0.5,3.8-1.6,4.2-2.8c0.3-0.9-0.2-1.7-1.3-2.2
				c-1.3-0.6-2.8-0.7-5.3-0.7h-4.5l-3.4,10.3h3.9l1.4-4.1h0.8L47.8,33.6z M45.1,28.1H44l1-3.1h0.8c1.8,0,2.8,0.2,3.1,0.7
				c0.2,0.2,0.2,0.5,0.1,0.9C48.8,27.3,47.9,28.1,45.1,28.1z M44.3,27.9h0.8c2.1,0,3.4-0.5,3.7-1.4c0.1-0.3,0.1-0.5,0-0.7
				c-0.3-0.4-1.2-0.6-2.9-0.6h-0.6L44.3,27.9z"/>
		</g>
		<g>
			<path class="st0" d="M59.4,30.4l3.5-3.3l1.2,3.3H59.4z M51.6,33.7h4.3l1.7-1.5h7.3l0.6,1.5H70l-5.4-10.8h-0.3L51.6,33.7z"/>
			<path class="st0" d="M70.2,33.8h-4.8l-0.6-1.5h-7.2l-1.7,1.5h-4.7l13.1-11.1h0.4L70.2,33.8z M65.6,33.6h4.2L64.6,23h-0.2
				L51.9,33.6h4l1.7-1.5H65L65.6,33.6z M64.3,30.5h-5.2l3.8-3.6L64.3,30.5z M59.7,30.3H64l-1.1-3L59.7,30.3z"/>
		</g>
		<g>
			<path class="st0" d="M73.4,22.9h0.4L83,29l1.9-5.8h4l-3.6,10.9h-0.4L75.7,28l-1.9,5.7h-4L73.4,22.9z"/>
			<path class="st0" d="M85.3,34.2h-0.5l-9.1-6.1l-1.9,5.7h-4.2l3.7-11.1h0.5l9.1,6.1l1.9-5.7h4.2L85.3,34.2z M84.9,34h0.3l3.6-10.7
				H85l-2,5.8L73.8,23h-0.3l-3.5,10.6h3.7l1.9-5.8L84.9,34z"/>
		</g>
		<g>
			<path class="st0" d="M93.5,28.5c0.6-1.9,3.2-3.2,5.8-3.2c2.6,0,4.3,1.3,3.7,3.2c-0.6,1.9-3.2,3.2-5.8,3.2
				C94.5,31.7,92.8,30.3,93.5,28.5z M89,28.5c-0.5,1.6,0,2.9,1.4,4c1.4,1,3.5,1.6,5.9,1.6c2.9,0,5.8-0.8,8-2.1c1.6-1,2.6-2.1,3-3.4
				c0.5-1.6,0.1-3-1.3-4c-1.4-1-3.5-1.6-6-1.6c-2.4,0-4.9,0.6-7,1.6C91,25.5,89.6,26.9,89,28.5z"/>
			<path class="st0" d="M96.4,34.2c-2.5,0-4.6-0.6-6-1.6c-1.5-1.1-2-2.5-1.4-4.1c0.5-1.6,2-3,4.1-4.1c2.1-1,4.6-1.6,7-1.6
				c2.5,0,4.6,0.6,6.1,1.6c1.4,1.1,1.9,2.5,1.4,4.1c-0.4,1.3-1.5,2.5-3.1,3.5C102.2,33.4,99.3,34.2,96.4,34.2z M100.1,23
				c-2.4,0-4.9,0.6-6.9,1.6c-2.1,1.1-3.5,2.4-4,3.9l0,0c-0.5,1.5,0,2.8,1.4,3.9c1.4,1,3.4,1.6,5.9,1.6c2.9,0,5.8-0.8,8-2.1
				c1.5-1,2.5-2.1,3-3.4c0.5-1.5,0.1-2.9-1.3-3.9C104.6,23.6,102.5,23,100.1,23z M97.2,31.8c-1.6,0-2.9-0.5-3.5-1.4
				c-0.4-0.6-0.5-1.3-0.3-2v0c0.6-1.9,3.2-3.3,6-3.3c1.6,0,2.9,0.5,3.5,1.4c0.4,0.6,0.5,1.3,0.3,2C102.5,30.4,99.9,31.8,97.2,31.8z
				 M93.6,28.5c-0.2,0.7-0.1,1.3,0.2,1.8c0.6,0.8,1.8,1.3,3.4,1.3c2.7,0,5.1-1.3,5.7-3.1c0.2-0.7,0.1-1.3-0.2-1.8
				c-0.6-0.8-1.8-1.3-3.4-1.3C96.6,25.3,94.2,26.7,93.6,28.5L93.6,28.5z"/>
		</g>
		<g>
			<path class="st0" d="M112.9,31.8c1.6,0,2.6-0.4,2.8-1c0.2-0.7-0.8-1-2.5-1.6l-1.1-0.4c-2.1-0.8-2.9-1.7-2.5-3
				c0.5-1.6,3.3-2.9,6.8-2.9c1.4,0,2.8,0.2,4.4,0.5l-0.8,2.5c-1.7-0.7-3.2-1-4.1-1c-1.2,0-2.1,0.3-2.2,0.8c-0.1,0.4,0.2,0.7,0.9,0.9
				l1.9,0.7c2.3,0.8,3.9,1.6,3.4,3.3c-0.7,2-3.6,3.4-7.7,3.4c-1.4,0-2.9-0.2-4.6-0.5l0.6-2.8C109.8,31.4,111.2,31.8,112.9,31.8z"/>
			<path class="st0" d="M112.2,34.2c-1.3,0-2.9-0.2-4.6-0.5l-0.1,0l0.6-3.1l0.1,0.1c1.6,0.6,3,1.1,4.7,1.1c1.6,0,2.5-0.5,2.7-0.9
				c0.2-0.5-0.5-0.8-1.9-1.3c-0.2-0.1-0.3-0.1-0.5-0.2l-1.1-0.4c-2.2-0.8-3-1.8-2.6-3.1c0.6-1.7,3.4-3,7-3c1.3,0,2.7,0.2,4.4,0.5
				l0.1,0l-0.9,2.7l-0.1,0c-1.5-0.6-3-1-4.1-1c-1.1,0-2,0.3-2.1,0.8c-0.1,0.4,0.4,0.6,0.9,0.8l1.9,0.7c2.2,0.8,4.1,1.6,3.5,3.4
				C119.4,32.8,116.2,34.2,112.2,34.2z M107.8,33.5c1.7,0.3,3.2,0.5,4.5,0.5c3.9,0,6.9-1.3,7.6-3.3c0.5-1.5-0.7-2.2-3.3-3.1
				l-1.9-0.7c-1-0.4-1.1-0.8-1-1.1c0.2-0.6,1.1-0.9,2.4-0.9c1.1,0,2.6,0.3,4.1,1l0.7-2.2c-1.6-0.3-3-0.5-4.2-0.5
				c-3.4,0-6.2,1.2-6.7,2.8c-0.4,1.2,0.4,2.1,2.4,2.8l1.1,0.4c0.2,0.1,0.4,0.1,0.5,0.2c1.4,0.5,2.2,0.8,2,1.6
				c-0.2,0.7-1.4,1.1-2.9,1.1c-1.7,0-3.1-0.4-4.6-1L107.8,33.5z"/>
		</g>
	</g>
	<g>
		<g>
			<path class="st1" d="M63.1,17.8c6.1-0.1,10.6-0.4,15.2-1.5c5.8-1.2,9.4-3.4,8.7-5.6c-0.9-2.8-8.5-5-16.1-4.6
				C64.4,6.4,59.8,7.9,59.5,10l-1-0.4c-4-2.1,3.6-5.2,13.7-5.3C83,4.2,91.9,7.2,91.6,11.2c-0.3,3.8-7.1,7.3-16.7,8.6
				C85,18.7,92.8,15,92.6,11c-0.2-4.5-9.2-7.2-20.5-7.7l-5.1,0c-9.1,0.5-16.5,3-16.4,6.1c0.1,3.1,7.5,5.3,16.6,5.3
				c7.3,0,13.6-1.7,15.3-4.1c0,0,1.1,0.6,1.1,1.2c0,1.9-4.8,3.7-10.8,4.6c-3.4,0.5-6.6,0.6-6.6,0.6C50.7,17.4,38,13.7,37.8,9.1
				c-0.1-4.3,12.3-8.2,26.7-8.7l-0.5,0C48.4,0.5,34.6,4.7,34.8,9.5C34.9,14.3,47.6,18,63.1,17.8z"/>
			<path class="st1" d="M74.9,19.9l0-0.2c4.6-0.6,8.8-1.8,11.8-3.3c3-1.5,4.7-3.4,4.8-5.1c0.1-0.8-0.2-1.6-0.9-2.3
				C88,6.1,80.6,4.3,72.3,4.4c-8.1,0.1-14.2,2-14.7,3.7c-0.1,0.5,0.2,0.9,1,1.3l0.8,0.4c0.4-2,5-3.6,11.4-3.9
				c7.6-0.4,15.3,1.9,16.2,4.7c0.2,0.6,0.1,1.2-0.2,1.8c-1,1.7-4.1,3.1-8.5,4c-4.3,1-8.8,1.5-15.3,1.5c-7.5,0.1-14.6-0.7-19.9-2.3
				c-5.4-1.6-8.4-3.8-8.5-6.1c0-0.8,0.4-1.7,1.1-2.5C39.5,3.2,51.3,0.3,64,0.2l0.5,0l0,0.2C50,1,37.8,4.9,38,9.1
				c0.1,2.1,3.1,4.2,8.3,5.7c5.4,1.5,12.5,2.3,19.9,2.1c0,0,3.3-0.1,6.6-0.6c6.3-1,10.7-2.8,10.7-4.5c0-0.4-0.6-0.8-0.9-1
				c-1.8,2.4-8.1,4.1-15.1,4.1c-0.1,0-0.2,0-0.3,0c-4.5,0-8.7-0.6-11.7-1.5c-3.2-1-5-2.4-5-3.9C50.4,6.4,57.3,3.8,67,3.2l5.1,0
				c9.8,0.4,20.4,2.7,20.6,7.8c0.1,1.9-1.7,3.9-5.1,5.6C84.4,18.2,79.8,19.4,74.9,19.9z M72.6,4.2c8.3,0,15.5,1.8,18.1,4.6
				c0.7,0.8,1.1,1.6,1,2.5c-0.2,2.6-3.4,5.1-8.4,6.8c5.7-1.7,9.4-4.3,9.3-7c-0.1-2.1-2.2-3.9-6-5.2c-3.6-1.3-8.6-2.1-14.4-2.3
				l-5.1,0c-4.5,0.2-8.6,1-11.6,2.1c-3,1.1-4.7,2.5-4.7,3.9c0.1,2.9,7.1,5.2,16.5,5.2c0.1,0,0.2,0,0.3,0c7,0,13.3-1.7,15-4.1
				l0.1-0.1l0.1,0.1c0.1,0.1,1.2,0.7,1.1,1.3c0,0.9-1.1,1.9-3.3,2.7c-1.9,0.8-4.7,1.5-7.7,1.9c-3.3,0.5-6.6,0.6-6.6,0.6
				c-7.4,0.2-14.5-0.6-20-2.1c-5.4-1.5-8.4-3.6-8.5-5.9c-0.1-2.1,2.8-4.2,8-5.9c3.5-1.1,8-2,12.7-2.5C48,1.4,39,3.9,36,7.2
				c-0.7,0.8-1.1,1.6-1.1,2.3c0.1,4.7,12.8,8.4,28.2,8.2l0,0.1l0-0.1c6.5-0.1,10.9-0.5,15.2-1.5c4.3-0.9,7.4-2.3,8.4-3.9
				c0.3-0.5,0.4-1,0.2-1.6C86,8,78.4,5.8,70.9,6.2c-6.4,0.3-11,1.9-11.2,3.8l0,0.2l-1.1-0.5c-1.1-0.6-1.2-1.2-1.1-1.6
				c0.2-1,1.9-1.9,4.6-2.7c2.9-0.8,6.5-1.2,10.2-1.3C72.4,4.2,72.5,4.2,72.6,4.2z"/>
		</g>
		<g>
			<path class="st1" d="M73,20c0.6-0.1,1.3-0.1,1.9-0.2c-0.3,0-0.5,0.1-0.8,0.1L73,20z"/>
			<path class="st1" d="M73,20.1l0-0.2l1.1-0.1c0.3,0,0.5-0.1,0.8-0.1l0,0.2C74.3,20,73.6,20,73,20.1z"/>
		</g>
		<g>
			<path class="st1" d="M71.4,0.3c-0.6,0-1.2,0-1.8,0c34.3,0.9,61,10.5,60.4,22.5c-0.7,13.3-34.2,24.5-75,24.1
				c-23.5-0.2-43-4.4-54.1-10.4c9.6,8.1,30.9,13.9,57.6,14.2c40.7,0.4,74-11.8,74.6-26.1C133.7,11.4,106.2,1,71.4,0.3z"/>
			<path class="st1" d="M60.7,50.8c-0.7,0-1.5,0-2.2,0c-12.9-0.1-25-1.6-35.3-4.2c-9.9-2.5-17.6-6-22.4-10l0.1-0.2
				c5.5,3,13.3,5.6,22.4,7.4c9.6,1.9,20.2,2.9,31.7,3c19.6,0.2,38.2-2.3,52.5-6.9c6.8-2.2,12.3-4.8,16.1-7.7c4-3,6.1-6.1,6.2-9.3
				c0.1-2.4-0.9-4.8-2.9-7c-3.9-4.2-11.3-7.8-21.4-10.6C95.2,2.4,82.8,0.8,69.6,0.4l0-0.2c0.5,0,1.1,0,1.8,0
				C84.6,0.5,97,2.1,107.4,5c10.3,2.8,18,6.7,22.2,11.2c2.5,2.7,3.7,5.5,3.6,8.4c-0.2,3.5-2.3,7-6.2,10.3c-3.9,3.2-9.3,6-16.1,8.4
				C97.2,48.1,79.4,50.8,60.7,50.8z M1.9,37.2c10.4,8,31.9,13.1,56.6,13.4c19.5,0.2,38.1-2.5,52.3-7.5c6.8-2.4,12.2-5.2,16-8.4
				c3.9-3.2,6-6.6,6.2-10.1c0.1-2.8-1.1-5.6-3.5-8.2c-4.2-4.4-11.8-8.3-22.1-11.1c-6.9-1.9-14.8-3.3-23.1-4C92,2,99.2,3.3,105.6,5
				c10.2,2.8,17.6,6.4,21.5,10.6c2.1,2.3,3.1,4.7,3,7.2c-0.2,3.3-2.3,6.5-6.3,9.5c-3.9,2.9-9.3,5.5-16.2,7.8
				c-14.3,4.7-33,7.1-52.6,6.9c-11.5-0.1-22.1-1.1-31.7-3C14.7,42.3,7.3,40,1.9,37.2z"/>
		</g>
	</g>
</g>
</svg>
